# xmcd
#
# Track frame offsets:
#	150
#	11915
#	26540
#	43320
#	55907
#	72957
#	88647
#	97747
#	107097
#	119445
#	136050
#	144755
#	157192
#	170300
#
# Disc length: 2610 seconds
#
# Revision: 1
# Processed by: cddbd v1.5.2PL0 Copyright (c) Steve Scherf et al.
# Submitted via: audiograbber 1.83.01
#
DISCID=b70a300e
DTITLE=Si Kahn - Companion
DYEAR=1997
DGENRE=
TTITLE0=Bone to Bone
TTITLE1=We Have Come a Long Way
TTITLE2=Companera
TTITLE3=Friendship
TTITLE4=Warriors
TTITLE5=Shines in the Light
TTITLE6=Burning the Fields
TTITLE7=Another Year
TTITLE8=Sailing Down the Hudson
TTITLE9=When the Shore is Out of Sight
TTITLE10=Friend of Mine
TTITLE11=Love Like Freedom
TTITLE12=Sixteen
TTITLE13=Journey Through this Life
EXTD=
EXTT0=
EXTT1=
EXTT2=
EXTT3=
EXTT4=
EXTT5=
EXTT6=
EXTT7=
EXTT8=
EXTT9=
EXTT10=
EXTT11=
EXTT12=
EXTT13=
PLAYORDER=
